HIERARCHY
ROOT Hips
{
  OFFSET 1.44925e-005 102.336 -0.101585
  CHANNELS 6 Xposition Yposition Zposition Zrotation Xrotation Yrotation
  JOINT LeftUpLeg
  {
    OFFSET 8.9458 -8.66707 0.101652
    CHANNELS 3 Zrotation Xrotation Yrotation
    JOINT LeftLeg
    {
      OFFSET 0 -44.4227 1.3727
      CHANNELS 3 Zrotation Xrotation Yrotation
      JOINT LeftFoot
      {
        OFFSET -0.253549 -42.0924 -1.46059
        CHANNELS 3 Zrotation Xrotation Yrotation
        JOINT LeftToes
        {
          OFFSET -0.04 -4.41509 8.4991
          CHANNELS 3 Zrotation Xrotation Yrotation
          End Site
          {
            OFFSET 0.08 -0.047448 9.77979
          }
        }
      }
    }
  }
  JOINT Spine
  {
    OFFSET 0 11.8905 0
    CHANNELS 3 Zrotation Xrotation Yrotation
    JOINT Spine1
    {
      OFFSET 0 25.6574 0.127663
      CHANNELS 3 Zrotation Xrotation Yrotation
      JOINT RightShoulder
      {
        OFFSET -8.99 -0.362252 -0.22
        CHANNELS 3 Zrotation Xrotation Yrotation
        JOINT RightArm
        {
          OFFSET -10.2827 -0.00338 0.322123
          CHANNELS 3 Zrotation Xrotation Yrotation
          JOINT RightForeArm
          {
            OFFSET -26.364 0.099144 -1.42434
            CHANNELS 3 Zrotation Xrotation Yrotation
            JOINT RightHand
            {
              OFFSET -22.0324 0.085362 1.02216
              CHANNELS 3 Zrotation Xrotation Yrotation
              End Site
              {
                OFFSET -13.3284 -0.6 1.50291
              }
            }
          }
        }
      }
      JOINT LeftShoulder1
      {
        OFFSET 8.99 -0.362252 -0.22
        CHANNELS 3 Zrotation Xrotation Yrotation
        JOINT LeftArm
        {
          OFFSET 10.2827 -0.00337999 0.322123
          CHANNELS 3 Zrotation Xrotation Yrotation
          JOINT LeftForeArm
          {
            OFFSET 26.2597 0.099144 -1.42434
            CHANNELS 3 Zrotation Xrotation Yrotation
            JOINT LeftHand
            {
              OFFSET 22.0902 0.085362 1.02216
              CHANNELS 3 Zrotation Xrotation Yrotation
              End Site
              {
                OFFSET 13.419 -0.6 1.50291
              }
            }
          }
        }
      }
      JOINT Head
      {
        OFFSET 0 8.73416 0.011341
        CHANNELS 3 Zrotation Xrotation Yrotation
        End Site
        {
          OFFSET -0.29 12.7742 2.51395
        }
      }
    }
  }
  JOINT RightUpLeg
  {
    OFFSET -8.9458 -8.66707 0.101652
    CHANNELS 3 Zrotation Xrotation Yrotation
    JOINT RightLeg
    {
      OFFSET 0 -44.4227 1.3727
      CHANNELS 3 Zrotation Xrotation Yrotation
      JOINT RightFoot
      {
        OFFSET 0.253549 -42.0924 -1.46059
        CHANNELS 3 Zrotation Xrotation Yrotation
        JOINT RightToes
        {
          OFFSET 0.04 -4.41509 8.4991
          CHANNELS 3 Zrotation Xrotation Yrotation
          End Site
          {
            OFFSET -0.08 -0.137448 9.77979
          }
        }
      }
    }
  }
}
MOTION
Frames:	15
Frame Time:	0.0333333
196.266 103.097 2.78519 -3.99312 -0.516882 -92.2921 -3.0865 2.73115 1.06434 -0.319888 6.95282 19.3972 -0.318798 -10.7076 0.0368264 -1.33678e-009 8.75219e-006 -1.46745e-008 2.63566 6.59051 0.518844 -4.05595 -2.56901 1.34468 36.4168 1.70505 0.0174139 41.7706 -14.3611 1.43654 6.4978 34.9147 11.4876 -9.62559 9.46403 0.259737 -43.3371 3.48148 -3.4923 -28.0495 -10.2805 4.98247 -3.82191 33.7949 -15.8944 5.82328 9.61819 -0.917488 1.00635 -2.58314 -6.7058 0.0262378 1.91749 -3.37931 -0.477987 10.5251 -6.95752 1.91506 -13.2757 -0.108741 0.0462048 0.000530889 0.662642 
196.28 103.097 2.78519 -3.98575 -0.523112 -92.2941 -3.10855 2.70521 1.03063 -0.294125 6.96984 19.4313 -0.300668 -10.7076 0.0368264 -1.33678e-009 8.75219e-006 -1.46745e-008 2.67852 6.5452 0.495991 -4.15638 -2.45358 1.34164 36.4857 1.70505 0.0174139 41.808 -14.0234 1.50595 6.21759 34.9208 11.8585 -9.22536 9.49139 0.152763 -43.2668 3.48148 -3.49194 -28.0911 -10.2919 4.86798 -3.79742 33.9003 -15.8983 5.82328 9.61819 -0.917488 1.04767 -2.75373 -6.72345 0.0123983 1.89796 -3.39116 -0.466691 10.5294 -6.9521 1.89498 -13.2642 -0.108736 0.0462048 0.000530889 0.662642 
196.297 103.097 2.78519 -3.9956 -0.521984 -92.2683 -3.128 2.68696 0.9874 -0.25401 7.00469 19.4476 -0.303595 -10.7076 0.0368264 -1.33678e-009 8.75219e-006 -1.46745e-008 2.71585 6.55126 0.44633 -4.23423 -2.36099 1.30875 36.5331 1.70505 0.0174139 41.8956 -13.47 1.58748 5.7689 35.0954 12.4143 -8.52556 9.5155 0.298386 -43.2105 3.48293 -3.49367 -28.1469 -10.1805 4.72264 -3.6966 33.9026 -16.0162 5.82328 9.61819 -0.917488 1.10263 -2.95992 -6.76723 0.000191841 1.91212 -3.42071 -0.43825 10.5079 -6.96503 1.89143 -13.2507 -0.10873 0.0462048 0.000530889 0.662642 
196.323 103.097 2.78519 -4.01946 -0.514206 -92.2672 -3.13217 2.67537 0.968494 -0.231808 7.04703 19.4656 -0.313282 -10.7076 0.0368264 -1.33678e-009 8.75219e-006 -1.46745e-008 2.71654 6.64443 0.420547 -4.21821 -2.34868 1.28341 36.4774 1.70505 0.0174956 42.0414 -12.9313 1.66622 5.47062 35.032 12.8342 -8.15323 9.52488 0.440535 -43.244 3.49077 -3.50597 -28.1875 -9.83563 4.59465 -3.49965 33.6236 -16.3149 5.82328 9.61819 -0.917488 1.02254 -3.24063 -6.76644 -0.0010653 1.92284 -3.43583 -0.423191 10.5098 -6.94734 1.92974 -13.2515 -0.10873 0.0462048 0.000530889 0.662642 
196.37 103.097 2.78519 -4.04013 -0.514909 -92.32 -3.13635 2.65369 0.970377 -0.237435 7.07599 19.5158 -0.298247 -10.7057 0.0368262 -1.33678e-009 8.75219e-006 -1.46745e-008 2.68139 6.8068 0.432444 -4.15221 -2.4327 1.28471 36.3565 1.70505 0.0190963 42.2195 -12.5021 1.74676 5.38232 34.6 13.0712 -8.29558 9.52834 0.274653 -43.3153 3.50236 -3.51829 -28.231 -9.43604 4.48339 -3.34615 33.1296 -16.617 5.82328 9.61819 -0.917488 0.874665 -3.47176 -6.59794 -0.00121968 1.88043 -3.42081 -0.439744 10.5712 -6.88763 1.97018 -13.2622 -0.108735 0.0462048 0.000530889 0.662642 
196.427 103.097 2.78519 -4.05376 -0.523626 -92.3577 -3.13734 2.62506 0.974257 -0.252922 7.08924 19.5507 -0.276007 -10.6993 0.0368254 -1.33678e-009 8.75219e-006 -1.46745e-008 2.62053 7.02942 0.437753 -4.07405 -2.66796 1.27166 36.2427 1.70505 0.0262995 42.3799 -12.1443 1.78528 5.40059 34.0732 13.1993 -8.65583 9.52459 0.0618516 -43.3315 3.50312 -3.51731 -28.3225 -9.13711 4.42469 -3.26413 32.5927 -16.8451 5.82328 9.61819 -0.917488 0.975582 -3.32434 -6.29778 -0.00147782 1.82071 -3.40206 -0.460265 10.6383 -6.86487 1.96338 -13.2605 -0.108734 0.0462048 0.000530889 0.662642 
196.473 103.097 2.78519 -4.06218 -0.5201 -92.3173 -3.12848 2.5867 0.975823 -0.258192 7.12389 19.5175 -0.278454 -10.7043 0.036826 -1.33678e-009 8.75219e-006 -1.46745e-008 2.57677 7.26718 0.411932 -4.0123 -2.98968 1.22716 36.1936 1.70505 0.0362694 42.4534 -11.8097 1.75856 5.45587 33.652 13.2649 -8.90557 9.51033 0.0987259 -43.2658 3.49113 -3.50336 -28.4798 -8.82237 4.40472 -3.03629 32.1487 -17.2131 5.82328 9.61819 -0.917488 1.40921 -2.88365 -6.02459 0.00513948 1.7971 -3.39845 -0.454787 10.6527 -6.93245 1.92613 -13.2383 -0.108724 0.0462048 0.000530889 0.662642 
196.508 103.097 2.78519 -4.05849 -0.498676 -92.2381 -3.10218 2.51949 0.981242 -0.253301 7.20629 19.4474 -0.300456 -10.7309 0.0368292 -1.33678e-009 8.75219e-006 -1.46745e-008 2.59583 7.42305 0.389724 -4.01108 -3.19107 1.20045 36.2368 1.70505 0.0341228 42.3886 -11.6515 1.72267 5.47003 33.5308 13.2949 -8.88171 9.50157 0.244438 -43.1706 3.47657 -3.48871 -28.6569 -8.39519 4.32107 -2.59445 31.8205 -17.7961 5.82328 9.61819 -0.917488 1.80678 -2.68266 -5.79643 0.0301685 1.791 -3.38375 -0.442505 10.6357 -7.03897 1.92482 -13.2165 -0.108715 0.0462048 0.000530889 0.662642 
196.543 103.097 2.78526 -4.04003 -0.483097 -92.1883 -3.0823 2.4346 0.982178 -0.24891 7.28987 19.4019 -0.321463 -10.7475 0.0368312 -1.33678e-009 8.75219e-006 -1.46745e-008 2.65543 7.45673 0.399098 -4.07113 -3.18645 1.22108 36.3314 1.70505 0.0186581 42.2327 -11.9018 1.74114 5.36628 33.9732 13.2909 -8.58039 9.51286 0.296055 -43.1021 3.4678 -3.48156 -28.7943 -8.00855 4.13889 -2.25107 31.5014 -18.2703 5.82328 9.61819 -0.917488 1.85378 -2.85884 -5.52901 0.0595582 1.76158 -3.33581 -0.458624 10.6302 -7.1163 1.9853 -13.2149 -0.108714 0.0462048 0.000530889 0.662642 
196.58 103.097 2.78602 -4.02504 -0.492543 -92.1597 -3.08756 2.38692 0.973071 -0.248704 7.3007 19.3776 -0.339028 -10.7205 0.036828 -1.33678e-009 8.75219e-006 -1.46745e-008 2.69065 7.44444 0.41164 -4.12963 -3.11868 1.24507 36.4046 1.70505 0.00556428 42.0977 -12.4607 1.80467 5.25799 34.7426 13.1891 -8.2306 9.52743 0.338774 -43.0544 3.46295 -3.47906 -28.8966 -7.79878 3.96751 -2.25377 31.0918 -18.3831 5.82328 9.61819 -0.917488 1.75967 -2.98986 -5.26433 0.0698424 1.72886 -3.28894 -0.49202 10.6308 -7.17116 2.05764 -13.2249 -0.108718 0.0462048 0.000530889 0.662642 
196.608 103.097 2.78714 -4.03364 -0.514527 -92.1088 -3.10561 2.40203 0.95842 -0.249813 7.2435 19.336 -0.349859 -10.6671 0.0368215 -1.33678e-009 8.75219e-006 -1.46745e-008 2.68804 7.47458 0.394214 -4.14891 -3.12067 1.23077 36.455 1.70505 0.00164069 42.0104 -12.9091 1.85701 5.32567 35.1496 12.9805 -8.11973 9.52508 0.465635 -42.9862 3.45588 -3.47545 -28.996 -7.70721 3.88761 -2.41133 30.6963 -18.3171 5.82328 9.61819 -0.917488 1.88522 -2.80776 -4.99926 0.0579067 1.73106 -3.28861 -0.501907 10.6338 -7.23544 2.07881 -13.2281 -0.10872 0.0462048 0.000530889 0.662642 
196.63 103.097 2.78814 -4.05364 -0.529853 -92.0518 -3.11908 2.42712 0.947083 -0.251758 7.1975 19.2922 -0.339514 -10.6317 0.0368172 -1.33678e-009 8.75219e-006 -1.46745e-008 2.67675 7.55923 0.366469 -4.14397 -3.17887 1.20223 36.5192 1.70505 -0.00163376 41.9105 -13.0184 1.84854 5.46257 35.062 12.8358 -8.21304 9.51405 0.566983 -42.9187 3.44807 -3.47026 -29.0521 -7.65196 3.84491 -2.43771 30.5568 -18.3271 5.82328 9.61819 -0.917488 2.1658 -2.47829 -4.48083 0.0390751 1.73875 -3.32016 -0.488153 10.6486 -7.28813 2.04513 -13.2261 -0.108719 0.0462048 0.000530889 0.662642 
196.663 103.097 2.78854 -4.05131 -0.543689 -92.0439 -3.13344 2.40058 0.933863 -0.256739 7.19941 19.3002 -0.313959 -10.6202 0.0368158 -1.33678e-009 8.75219e-006 -1.46745e-008 2.65207 7.67737 0.367538 -4.11583 -3.26902 1.19805 36.5547 1.70505 -0.00933879 41.8118 -12.8956 1.7598 5.45481 34.8852 12.8971 -8.34039 9.51185 0.498249 -42.9308 3.44744 -3.46664 -28.9922 -7.61589 3.79452 -2.38092 30.6646 -18.3633 5.82328 9.61819 -0.917488 2.27881 -2.26676 -3.60565 0.0201107 1.68934 -3.33429 -0.484205 10.7021 -7.28675 2.01092 -13.2317 -0.108722 0.0462048 0.000530889 0.662642 
196.706 103.097 2.78784 -4.01867 -0.567919 -92.0896 -3.15769 2.33727 0.912906 -0.265939 7.20187 19.3652 -0.300541 -10.6008 0.0368135 -1.33678e-009 8.75219e-006 -1.46745e-008 2.60545 7.81299 0.393984 -4.07544 -3.40169 1.21479 36.5311 1.70394 -0.0183214 41.7788 -12.5833 1.62313 5.44474 34.4234 13.0374 -8.67805 9.51432 0.205062 -43.0034 3.45214 -3.4651 -28.8608 -7.54803 3.78648 -2.42419 30.7368 -18.3004 5.82328 9.61819 -0.917488 2.20883 -2.31022 -2.82805 -0.00591408 1.58555 -3.32601 -0.497849 10.7727 -7.23389 2.02158 -13.2422 -0.108726 0.0462048 0.000530889 0.662642 
196.741 103.097 2.78547 -3.98274 -0.592489 -92.1407 -3.17802 2.29295 0.895795 -0.278034 7.16845 19.4324 -0.305235 -10.5642 0.0368091 -1.33678e-009 8.75219e-006 -1.46745e-008 2.58371 7.93156 0.410295 -4.09414 -3.5232 1.23157 36.5645 1.70035 -0.0291404 41.7591 -12.0159 1.50878 5.69936 33.2205 13.0645 -9.40647 9.50573 -0.165669 -42.9917 3.44821 -3.45898 -28.8007 -7.43818 3.84106 -2.53908 30.668 -18.1974 5.82328 9.61819 -0.917488 2.16637 -2.47073 -2.56878 -0.0374868 1.49151 -3.33255 -0.498182 10.8264 -7.16858 2.05938 -13.2436 -0.108727 0.0462048 0.000530889 0.662642 
